<?xml version="1.0" encoding="UTF-8"?>
<svg width="167px" height="47px" viewBox="0 0 167 47" version="1.1" xmlns="http://www.w3.org/2000/svg" xmlns:xlink="http://www.w3.org/1999/xlink">
    <!-- Generator: Sketch 45.2 (43514) - http://www.bohemiancoding.com/sketch -->
    <title>hmcro-logo</title>
    <desc>Created with Sketch.</desc>
    <defs></defs>
    <g id="Favicons" stroke="none" stroke-width="1" fill="none" fill-rule="evenodd">
        <g id="hmcro-logo" fill="#FFFFFF">
            <g id="Group">
                <path d="M31.2675444,59.6328576 C15.6345054,59.6328576 2.92422886,46.896917 2.92422886,31.2631448 C2.92422886,15.6345054 15.6345054,2.92202909 31.2675444,2.92202909 C46.9005833,2.92202909 59.6093933,15.6345054 59.6093933,31.2631448 C59.6093933,46.896917 46.9005833,59.6328576 31.2675444,59.6328576 M31.2675444,0 C14.0228066,0 0,14.0220733 0,31.2631448 C0,48.5078826 14.0228066,62.5321557 31.2675444,62.5321557 C48.5093491,62.5321557 62.5321557,48.5078826 62.5321557,31.2631448 C62.5321557,14.0220733 48.5093491,0 31.2675444,0" id="Fill-1"></path>
                <path d="M31.245922,26.6319969 L36.2240037,36.6585529 L43.7780171,30.6135823 L43.7780171,40.6438046 L18.180749,40.6438046 L18.180749,30.5651874 L26.2458426,36.8308683 L31.245922,26.6319969 Z M37.1728382,32.361667 L31.245922,20.3648494 L25.2486131,32.5559801 L15.4112374,24.9066432 L15.4112374,43.4133162 L46.5445957,43.4133162 L46.5445957,24.8582482 L37.1728382,32.361667 Z" id="Fill-4"></path>
                <path d="M31.2528261,13.9129389 C31.714778,13.9129389 32.0792068,14.2759011 32.0792068,14.7385863 C32.0792068,15.1998049 31.714778,15.5642336 31.2528261,15.5642336 C30.7916075,15.5642336 30.424979,15.1998049 30.424979,14.7385863 C30.424979,14.2759011 30.7916075,13.9129389 31.2528261,13.9129389 M31.2528261,11.1456271 C29.2620334,11.1456271 27.6576671,12.7470603 27.6576671,14.7385863 C27.6576671,16.706648 29.2620334,18.3322788 31.2528261,18.3322788 C33.2421523,18.3322788 34.8465186,16.706648 34.8465186,14.7385863 C34.8465186,12.7470603 33.2421523,11.1456271 31.2528261,11.1456271" id="Fill-6"></path>
                <path d="M45.8384615,18.3176161 C46.2989469,18.3176161 46.6633757,18.6820448 46.6633757,19.1439967 C46.6633757,19.6030156 46.2989469,19.9674443 45.8384615,19.9674443 C45.3757764,19.9674443 45.0135474,19.6030156 45.0135474,19.1439967 C45.0135474,18.6820448 45.3757764,18.3176161 45.8384615,18.3176161 M45.8384615,15.5488377 C43.8469356,15.5488377 42.2433025,17.150271 42.2433025,19.1439967 C42.2433025,21.1120585 43.8469356,22.7362227 45.8384615,22.7362227 C47.80579,22.7362227 49.4314208,21.1120585 49.4314208,19.1439967 C49.4314208,17.150271 47.80579,15.5488377 45.8384615,15.5488377" id="Fill-8"></path>
                <path d="M16.667924,19.9674443 C16.2037723,19.9674443 15.8400769,19.6030156 15.8400769,19.1439967 C15.8400769,18.6820448 16.2037723,18.3176161 16.667924,18.3176161 C17.1284094,18.3176161 17.4935714,18.6820448 17.4935714,19.1439967 C17.4935714,19.6030156 17.1284094,19.9674443 16.667924,19.9674443 M16.667924,15.5488377 C14.7013288,15.5488377 13.0720317,17.150271 13.0720317,19.1439967 C13.0720317,21.1120585 14.7013288,22.7362227 16.667924,22.7362227 C18.6572502,22.7362227 20.2616165,21.1120585 20.2616165,19.1439967 C20.2616165,17.150271 18.6572502,15.5488377 16.667924,15.5488377" id="Fill-10"></path>
                <polygon id="Fill-12" points="15.4112374 48.8942206 46.5658602 48.8942206 46.5658602 46.0961119 15.4112374 46.0961119"></polygon>
                <path d="M87.4348299,25.1808611 L87.4348299,10.9975691 L83.878962,10.9975691 L83.878962,16.1204295 L78.6958326,16.1204295 L78.6958326,10.9975691 L75.1198752,10.9975691 L75.1198752,25.1808611 L78.6958326,25.1808611 L78.6958326,19.1338768 L83.878962,19.1338768 L83.878962,25.1808611 L87.4348299,25.1808611 Z M105.857038,25.1808611 L105.857038,10.9975691 L100.673908,10.9975691 L98.0421644,20.9218556 L95.3702411,10.9975691 L90.1871117,10.9975691 L90.1871117,25.1808611 L93.6425313,25.1808611 C93.6425313,25.1808611 93.6224417,16.5624018 93.5621727,14.5735266 L96.4952614,25.1808611 L99.5689777,25.1808611 L102.522156,14.5735266 C102.441797,17.3458981 102.441797,25.1808611 102.441797,25.1808611 L105.857038,25.1808611 Z M123.997991,20.5200626 C123.515839,21.3437382 122.772522,22.6294757 120.924274,22.6294757 C119.015758,22.6294757 117.428675,21.0825728 117.428675,17.9686772 C117.428675,15.5980987 118.634054,13.4685959 120.924274,13.4685959 C122.370729,13.4685959 123.636377,14.5735266 123.937722,15.638278 L126.750272,14.2320025 C125.74579,12.1024998 123.375211,10.5555968 120.763557,10.5555968 C116.745627,10.5555968 113.892897,13.8703889 113.892897,18.0691255 C113.892897,22.8705515 116.926434,25.6027438 120.683199,25.6027438 C123.636377,25.6027438 125.665431,23.9152133 126.790452,21.9464277 L123.997991,20.5200626 Z M131.672236,13.3882373 L131.672236,10.9975691 L128.59852,10.9975691 L128.59852,13.3882373 L131.672236,13.3882373 Z M131.672236,25.1808611 L131.672236,14.6940645 L128.59852,14.6940645 L128.59852,25.1808611 L131.672236,25.1808611 Z M139.929082,16.8436569 L139.929082,14.9552299 L137.879938,14.9552299 L137.879938,11.6605275 L134.826311,11.6605275 L134.826311,14.9351403 L133.299498,14.9351403 L133.299498,16.8235672 L134.826311,16.8235672 L134.826311,22.2879517 C134.826311,24.7388889 136.132138,25.2612197 137.819669,25.2612197 C138.944689,25.2612197 139.567468,25.1406818 139.768365,25.1005025 L139.768365,22.7098343 C139.768365,22.7098343 138.90451,22.729924 138.683524,22.729924 C138.201372,22.729924 137.879938,22.5692068 137.879938,21.8660691 L137.879938,16.8436569 L139.929082,16.8436569 Z M144.65015,13.3882373 L144.65015,10.9975691 L141.576433,10.9975691 L141.576433,13.3882373 L144.65015,13.3882373 Z M144.65015,25.1808611 L144.65015,14.6940645 L141.576433,14.6940645 L141.576433,25.1808611 L144.65015,25.1808611 Z M156.322235,25.1808611 L156.322235,22.7901929 L150.737313,22.7901929 L156.322235,17.064643 L156.322235,14.6940645 L147.342162,14.6940645 L147.342162,17.064643 L152.404754,17.064643 L146.739473,22.8705515 L146.739473,25.1808611 L156.322235,25.1808611 Z M168.235397,20.5803316 L160.741958,20.5803316 L160.741958,20.7008695 C160.741958,22.1071449 161.706261,23.1919859 163.132626,23.1919859 C164.599171,23.1919859 165.463026,22.1875035 165.78446,21.3236486 L168.114859,22.5290275 C166.92957,24.5179027 165.061233,25.5625645 162.891551,25.5625645 C159.697296,25.5625645 157.587883,23.5335099 157.587883,20.1383593 C157.587883,17.5066153 158.873621,14.3726301 162.971909,14.3726301 C166.90948,14.3726301 168.235397,17.5267049 168.235397,20.439704 L168.235397,20.5803316 Z M160.741958,18.6517253 L165.041143,18.6517253 C165.000964,17.4865256 164.217467,16.5824915 162.95182,16.5824915 C161.485275,16.5824915 160.882586,17.80796 160.741958,18.6517253 Z M179.405242,25.1808611 L179.405242,17.6472428 C179.405242,15.5177401 178.280222,14.432899 176.150719,14.432899 C174.684174,14.432899 173.699782,15.0154989 173.19754,15.6181883 L173.19754,14.6940645 L170.063555,14.6940645 L170.063555,25.1808611 L173.157361,25.1808611 L173.157361,19.3146837 C173.157361,17.9084083 173.358258,16.9039258 174.784623,16.9039258 C176.030181,16.9039258 176.311436,17.7276014 176.311436,18.7119942 L176.311436,25.1808611 L179.405242,25.1808611 Z M75.0997855,34.2520255 L81.8097282,34.2520255 C83.9191413,34.2520255 87.254023,34.7944461 87.254023,38.8525551 C87.254023,41.263313 85.8879269,42.2276161 84.3410239,42.7700366 L87.6156367,48.4353176 L83.7182448,48.4353176 L80.8856044,43.3727261 L78.675743,43.3727261 L78.675743,48.4353176 L75.0997855,48.4353176 L75.0997855,34.2520255 Z M78.6556533,36.8837695 L78.6556533,40.7409821 L81.5887421,40.7409821 C83.6177966,40.7409821 83.7182448,39.2141688 83.7182448,38.7721965 C83.7182448,36.9239488 82.2316108,36.8837695 81.6088317,36.8837695 L78.6556533,36.8837695 Z M99.8904121,43.1919192 C99.8904121,46.5870699 97.7609093,48.756752 94.2452208,48.756752 C91.5130286,48.756752 88.6201191,47.2701179 88.6201191,43.1316503 C88.6201191,40.4798167 90.227291,37.6270865 94.1447725,37.6270865 C98.5444056,37.6270865 99.8904121,40.6807132 99.8904121,43.1919192 Z M96.7564269,43.2923675 C96.7564269,41.0624165 95.8122134,40.0780237 94.1246829,40.0780237 C92.9594833,40.0780237 91.7340147,40.9619682 91.7340147,43.15174 C91.7340147,44.8995394 92.4773317,46.2857252 94.2854001,46.2857252 C95.9930202,46.2857252 96.7564269,44.8593601 96.7564269,43.2923675 Z M107.383851,40.0981133 L107.383851,38.2096864 L105.334707,38.2096864 L105.334707,34.914984 L102.28108,34.914984 L102.28108,38.1895967 L100.754267,38.1895967 L100.754267,40.0780237 L102.28108,40.0780237 L102.28108,45.5424082 C102.28108,47.9933453 103.586907,48.5156762 105.274438,48.5156762 C106.399458,48.5156762 107.022237,48.3951383 107.223134,48.354959 L107.223134,45.9642908 C107.223134,45.9642908 106.359279,45.9843804 106.138293,45.9843804 C105.656141,45.9843804 105.334707,45.8236632 105.334707,45.1205255 L105.334707,40.0981133 L107.383851,40.0981133 Z M118.212172,48.4353176 L115.178635,48.4353176 L115.178635,47.4911041 C114.354959,48.0335246 113.571463,48.7165727 111.964291,48.7165727 C109.573623,48.7165727 108.528961,47.0290422 108.528961,45.5223185 C108.528961,44.2164913 109.432995,43.0512917 110.738822,42.5088712 C111.46205,42.2075265 112.56698,41.9865403 114.87729,41.5445681 L114.87729,40.9619682 C114.87729,40.6003546 114.817021,39.6963204 113.692001,39.6963204 C112.386174,39.6963204 112.145098,40.459727 112.064739,40.9217889 L108.970933,40.9217889 C108.970933,38.6114793 111.100436,37.6672658 113.390656,37.6672658 C115.198724,37.6672658 117.910827,38.1494174 117.910827,40.6807132 L117.910827,46.808056 C117.910827,47.7120902 117.951006,48.0536143 118.212172,48.4353176 Z M114.87729,43.4129054 L112.888415,44.0758638 C111.823663,44.4173878 111.562498,44.919629 111.562498,45.381691 C111.562498,45.7433046 111.863843,46.4464423 112.747787,46.4464423 C113.953166,46.4464423 114.87729,45.3616013 114.87729,43.8749673 L114.87729,43.4129054 Z M126.207852,40.0981133 L126.207852,38.2096864 L124.158708,38.2096864 L124.158708,34.914984 L121.105081,34.914984 L121.105081,38.1895967 L119.578268,38.1895967 L119.578268,40.0780237 L121.105081,40.0780237 L121.105081,45.5424082 C121.105081,47.9933453 122.410908,48.5156762 124.098439,48.5156762 C125.223459,48.5156762 125.846238,48.3951383 126.047135,48.354959 L126.047135,45.9642908 C126.047135,45.9642908 125.18328,45.9843804 124.962294,45.9843804 C124.480142,45.9843804 124.158708,45.8236632 124.158708,45.1205255 L124.158708,40.0981133 L126.207852,40.0981133 Z M130.928919,36.6426938 L130.928919,34.2520255 L127.855203,34.2520255 L127.855203,36.6426938 L130.928919,36.6426938 Z M130.928919,48.4353176 L130.928919,37.9485209 L127.855203,37.9485209 L127.855203,48.4353176 L130.928919,48.4353176 Z M144.248357,43.1919192 C144.248357,46.5870699 142.118854,48.756752 138.603165,48.756752 C135.870973,48.756752 132.978064,47.2701179 132.978064,43.1316503 C132.978064,40.4798167 134.585236,37.6270865 138.502717,37.6270865 C142.90235,37.6270865 144.248357,40.6807132 144.248357,43.1919192 Z M141.114371,43.2923675 C141.114371,41.0624165 140.170158,40.0780237 138.482627,40.0780237 C137.317428,40.0780237 136.091959,40.9619682 136.091959,43.15174 C136.091959,44.8995394 136.835276,46.2857252 138.643345,46.2857252 C140.350965,46.2857252 141.114371,44.8593601 141.114371,43.2923675 Z M155.639187,48.4353176 L155.639187,40.9016993 C155.639187,38.7721965 154.514167,37.6873555 152.384664,37.6873555 C150.91812,37.6873555 149.933727,38.2699553 149.431486,38.8726448 L149.431486,37.9485209 L146.297501,37.9485209 L146.297501,48.4353176 L149.391307,48.4353176 L149.391307,42.5691401 C149.391307,41.1628647 149.592203,40.1583823 151.018568,40.1583823 C152.264126,40.1583823 152.545382,40.9820579 152.545382,41.9664507 L152.545382,48.4353176 L155.639187,48.4353176 Z M163.735316,41.2834026 C163.735316,38.0489692 165.623743,33.8100533 170.746603,33.8100533 C175.909643,33.8100533 177.938698,38.0690588 177.938698,41.4441198 C177.938698,45.2410634 175.347133,48.8572002 170.786783,48.8572002 C166.105894,48.8572002 163.735316,45.1807945 163.735316,41.2834026 Z M167.230915,41.2432233 C167.230915,43.5133536 168.255487,45.8437529 170.806872,45.8437529 C173.438616,45.8437529 174.38283,43.3928157 174.38283,41.4039405 C174.38283,38.8324655 173.257809,36.7833213 170.746603,36.7833213 C168.05459,36.7833213 167.230915,39.3347067 167.230915,41.2432233 Z M185.773661,40.0780237 L185.773661,38.1895967 L183.704427,38.1895967 L183.704427,37.5668176 C183.704427,36.8034109 183.804875,36.5422455 185.090613,36.5422455 L185.653123,36.5422455 L185.653123,34.2118463 C185.532585,34.1917566 184.528102,34.0310394 183.804875,34.0310394 C181.996807,34.0310394 180.6508,34.8748047 180.6508,36.682873 L180.6508,38.1895967 L179.003449,38.1895967 L179.003449,40.0780237 L180.6508,40.0780237 L180.6508,48.4353176 L183.724516,48.4353176 L183.724516,40.0780237 L185.773661,40.0780237 Z M197.485926,36.6426938 L197.485926,34.2520255 L194.41221,34.2520255 L194.41221,36.6426938 L197.485926,36.6426938 Z M197.485926,48.4353176 L197.485926,37.9485209 L194.41221,37.9485209 L194.41221,48.4353176 L197.485926,48.4353176 Z M192.885396,40.0780237 L192.885396,38.1895967 L190.816162,38.1895967 L190.816162,37.5668176 C190.816162,36.8034109 190.916611,36.5422455 192.202348,36.5422455 L192.764858,36.5422455 L192.764858,34.2118463 C192.64432,34.1917566 191.639838,34.0310394 190.916611,34.0310394 C189.108542,34.0310394 187.762536,34.8748047 187.762536,36.682873 L187.762536,38.1895967 L186.115185,38.1895967 L186.115185,40.0780237 L187.762536,40.0780237 L187.762536,48.4353176 L190.836252,48.4353176 L190.836252,40.0780237 L192.885396,40.0780237 Z M207.088778,44.7589119 C206.867792,45.4218703 206.265102,46.3259045 205.059723,46.3259045 C203.352103,46.3259045 202.729324,44.4977464 202.729324,43.1718296 C202.729324,41.9061817 203.311924,40.0177547 204.959275,40.0177547 C206.164654,40.0177547 206.727164,40.9016993 207.008419,41.4842991 L209.298639,40.1784719 C207.832095,37.8480727 205.762861,37.6471762 204.818648,37.6471762 C202.448069,37.6471762 199.55516,39.0735413 199.55516,43.2722778 C199.55516,47.209849 202.307442,48.7768416 204.758379,48.7768416 C206.365551,48.7768416 208.233888,48.0335246 209.419177,45.9642908 L207.088778,44.7589119 Z M221.010905,43.834788 L213.517466,43.834788 L213.517466,43.9553259 C213.517466,45.3616013 214.481769,46.4464423 215.908134,46.4464423 C217.374678,46.4464423 218.238533,45.4419599 218.559967,44.578105 L220.890367,45.7834839 C219.705077,47.7723592 217.83674,48.8170209 215.667058,48.8170209 C212.472804,48.8170209 210.363391,46.7879664 210.363391,43.3928157 C210.363391,40.7610717 211.649128,37.6270865 215.747417,37.6270865 C219.684988,37.6270865 221.010905,40.7811614 221.010905,43.6941605 L221.010905,43.834788 Z M213.517466,41.9061817 L217.81665,41.9061817 C217.776471,40.7409821 216.992975,39.8369479 215.727327,39.8369479 C214.260783,39.8369479 213.658093,41.0624165 213.517466,41.9061817 Z" id="HM-Citizen-Rotation"></path>
            </g>
        </g>
    </g>
</svg>